<svg xmlns="http://www.w3.org/2000/svg" xmlns:xlink="http://www.w3.org/1999/xlink" width="150" zoomAndPan="magnify" viewBox="0 0 112.5 112.499997" height="150" preserveAspectRatio="xMidYMid meet" version="1.0"><defs><clipPath id="dbf1cbe9b4"><path d="M 5.46875 5.46875 L 107.03125 5.46875 L 107.03125 107.03125 L 5.46875 107.03125 Z M 5.46875 5.46875 " clip-rule="nonzero"/></clipPath><clipPath id="5f5203d31e"><path d="M 56.25 5.46875 C 28.203125 5.46875 5.46875 28.203125 5.46875 56.25 C 5.46875 84.296875 28.203125 107.03125 56.25 107.03125 C 84.296875 107.03125 107.03125 84.296875 107.03125 56.25 C 107.03125 28.203125 84.296875 5.46875 56.25 5.46875 Z M 56.25 5.46875 " clip-rule="nonzero"/></clipPath><clipPath id="003c246f09"><path d="M 18.433594 18.433594 L 94.066406 18.433594 L 94.066406 94.066406 L 18.433594 94.066406 Z M 18.433594 18.433594 " clip-rule="nonzero"/></clipPath><clipPath id="52a57acaf1"><path d="M 56.25 18.433594 C 35.363281 18.433594 18.433594 35.363281 18.433594 56.25 C 18.433594 77.136719 35.363281 94.066406 56.25 94.066406 C 77.136719 94.066406 94.066406 77.136719 94.066406 56.25 C 94.066406 35.363281 77.136719 18.433594 56.25 18.433594 Z M 56.25 18.433594 " clip-rule="nonzero"/></clipPath><clipPath id="82b99d0f3f"><path d="M 30.492188 30.492188 L 82.007812 30.492188 L 82.007812 82.007812 L 30.492188 82.007812 Z M 30.492188 30.492188 " clip-rule="nonzero"/></clipPath><clipPath id="7274ee37ff"><path d="M 56.25 30.492188 C 42.023438 30.492188 30.492188 42.023438 30.492188 56.25 C 30.492188 70.476562 42.023438 82.007812 56.25 82.007812 C 70.476562 82.007812 82.007812 70.476562 82.007812 56.25 C 82.007812 42.023438 70.476562 30.492188 56.25 30.492188 Z M 56.25 30.492188 " clip-rule="nonzero"/></clipPath></defs><g clip-path="url(#dbf1cbe9b4)"><g clip-path="url(#5f5203d31e)"><path fill="#146fee" d="M 5.46875 5.46875 L 107.03125 5.46875 L 107.03125 107.03125 L 5.46875 107.03125 Z M 5.46875 5.46875 " fill-opacity="1" fill-rule="nonzero"/></g></g><g clip-path="url(#003c246f09)"><g clip-path="url(#52a57acaf1)"><path fill="#f5fff9" d="M 18.433594 18.433594 L 94.066406 18.433594 L 94.066406 94.066406 L 18.433594 94.066406 Z M 18.433594 18.433594 " fill-opacity="1" fill-rule="nonzero"/></g></g><g clip-path="url(#82b99d0f3f)"><g clip-path="url(#7274ee37ff)"><path fill="#146fee" d="M 30.492188 30.492188 L 82.007812 30.492188 L 82.007812 82.007812 L 30.492188 82.007812 Z M 30.492188 30.492188 " fill-opacity="1" fill-rule="nonzero"/></g></g><path stroke-linecap="butt" transform="matrix(0, 1.347108, -1.350535, 0, 62.992237, 28.640529)" fill="none" stroke-linejoin="miter" d="M 0.0000713863 5.000949 L 43.12485 5.000949 " stroke="#f5fff9" stroke-width="10" stroke-opacity="1" stroke-miterlimit="4"/><path stroke-linecap="round" transform="matrix(0, 1.353605, -1.350535, 0, 58.950698, 14.478371)" fill="none" stroke-linejoin="miter" d="M 2.001418 1.999725 L 59.859062 1.999725 " stroke="#146fee" stroke-width="4" stroke-opacity="1" stroke-miterlimit="4"/></svg>